<?xml version="1.0" encoding="UTF-8"?>
<!DOCTYPE svg PUBLIC "-//W3C//DTD SVG 1.1//EN" "http://www.w3.org/Graphics/SVG/1.1/DTD/svg11.dtd">
<svg xmlns="http://www.w3.org/2000/svg" version="1.1" width="192px" height="192px" style="shape-rendering:geometricPrecision; text-rendering:geometricPrecision; image-rendering:optimizeQuality; fill-rule:evenodd; clip-rule:evenodd" xmlns:xlink="http://www.w3.org/1999/xlink">
<g><path style="opacity:0.525" fill="#000000" d="M 69.5,74.5 C 73.471,73.7577 76.3043,75.091 78,78.5C 78.3742,77.5838 78.8742,76.7504 79.5,76C 92.8333,75.3333 106.167,75.3333 119.5,76C 123.5,78.3333 123.5,80.6667 119.5,83C 106.154,83.8327 92.8208,83.666 79.5,82.5C 78.1404,80.0188 77.1404,80.3522 76.5,83.5C 68.1616,85.1441 65.8283,82.1441 69.5,74.5 Z"/></g>
<g><path style="opacity:0.634" fill="#000000" d="M 119.5,93.5 C 106.167,92.1667 92.8333,92.1667 79.5,93.5C 78.7784,93.0825 78.2784,92.4158 78,91.5C 75.1186,96.3134 71.7853,96.6468 68,92.5C 66.5292,87.9667 68.1958,85.6334 73,85.5C 75.151,85.6431 76.8176,86.6431 78,88.5C 78.5,88 79,87.5 79.5,87C 92.8333,86.3333 106.167,86.3333 119.5,87C 123.439,89.3191 123.439,91.4858 119.5,93.5 Z"/></g>
<g><path style="opacity:0.008" fill="#000000" d="M 79.5,93.5 C 92.8333,93.5 106.167,93.5 119.5,93.5C 106.167,94.8333 92.8333,94.8333 79.5,93.5 Z"/></g>
<g><path style="opacity:0.527" fill="#000000" d="M 69.5,96.5 C 73.471,95.7577 76.3043,97.091 78,100.5C 78.3742,99.5838 78.8742,98.7504 79.5,98C 92.8333,97.3333 106.167,97.3333 119.5,98C 120.313,99.3139 121.313,100.481 122.5,101.5C 121.687,102.814 120.687,103.981 119.5,105C 106.167,105.667 92.8333,105.667 79.5,105C 78.3206,101.752 77.3206,101.918 76.5,105.5C 73.0865,107.046 70.2531,106.38 68,103.5C 67.3996,100.905 67.8996,98.5713 69.5,96.5 Z"/></g>
<g><path style="opacity:0.523" fill="#000000" d="M 69.5,107.5 C 73.471,106.758 76.3043,108.091 78,111.5C 78.3742,110.584 78.8742,109.75 79.5,109C 92.8333,108.333 106.167,108.333 119.5,109C 120.687,110.019 121.687,111.186 122.5,112.5C 121.313,113.519 120.313,114.686 119.5,116C 106.167,116.667 92.8333,116.667 79.5,116C 78.3206,112.752 77.3206,112.918 76.5,116.5C 71.6422,118.436 68.6422,116.936 67.5,112C 68.0735,110.393 68.7402,108.893 69.5,107.5 Z"/></g>
</svg>
